<?xml version="1.0" encoding="utf-8"?>
<!-- Generator: Adobe Illustrator 16.0.0, SVG Export Plug-In . SVG Version: 6.00 Build 0)  -->
<!DOCTYPE svg PUBLIC "-//W3C//DTD SVG 1.1//EN" "http://www.w3.org/Graphics/SVG/1.1/DTD/svg11.dtd">
<svg version="1.1" id="Logo_-_GT_pressura_SMALL_copy"
	 xmlns="http://www.w3.org/2000/svg" xmlns:xlink="http://www.w3.org/1999/xlink" x="0px" y="0px" width="559.472px"
	 height="307.484px" viewBox="0 0 559.472 307.484" enable-background="new 0 0 559.472 307.484" xml:space="preserve">
<g>
	<path fill="#EF4270" d="M225.77,257.134c-6.417,0-11.622,5.201-11.622,11.619c0,6.427,5.205,11.626,11.622,11.626
		c6.416,0,11.622-5.199,11.622-11.626C237.391,262.335,232.186,257.134,225.77,257.134z"/>
	<path fill="#EF4270" d="M537.277,78.264c6.427,0,11.626-5.199,11.626-11.616c0-6.427-5.199-11.627-11.626-11.627
		c-6.419,0-11.619,5.2-11.619,11.627C525.658,73.064,530.858,78.264,537.277,78.264z"/>
	<path fill="#EF4270" d="M536.94,109.65c-2.82,0-5.406,1.007-7.42,2.68c-0.866-0.011-1.771-0.021-2.709-0.033
		c1.747-2.021,2.823-4.624,2.823-7.496c0-3.634-1.665-6.875-4.272-9.005c3.129-2.081,5.208-5.609,5.208-9.648
		c0-4.987-3.136-9.223-7.541-10.876c-1.377-0.578-2.887-0.902-4.475-0.902c-3.564,0-6.712,1.636-8.852,4.164
		c-0.678-0.94-1.502-1.762-2.42-2.466c1.875-1.435,3.285-3.432,4.013-5.733c0.06-0.176,0.112-0.354,0.163-0.534
		c0.031-0.121,0.064-0.24,0.093-0.362c0.221-0.896,0.352-1.827,0.352-2.792c0-6.427-5.199-11.627-11.626-11.627
		c-3.611,0-6.837,1.646-8.968,4.23c-2.12-2.824-5.483-4.663-9.288-4.663c-6.417,0-11.618,5.208-11.618,11.626
		c0,4.325,2.388,8.052,5.884,10.057c-0.203,0.116-0.395,0.248-0.59,0.375c-1.12,0.545-2.142,1.258-3.025,2.117
		c-2.125-2.582-5.306-4.259-8.911-4.259c-3.604,0-6.785,1.667-8.914,4.239c-0.076-0.074-0.157-0.143-0.235-0.214
		c-0.691-0.885-1.503-1.684-2.432-2.342c2.985-2.102,4.943-5.553,4.943-9.479c0-4.078-2.11-7.653-5.297-9.725
		c3.187-2.082,5.297-5.657,5.297-9.735c0-6.416-5.209-11.616-11.627-11.616c-3.917,0-7.367,1.948-9.468,4.915
		c-0.628-0.731-1.322-1.398-2.112-1.96c2.986-2.099,4.935-5.551,4.935-9.477c0-6.417-5.189-11.626-11.616-11.626
		c-6.428,0-11.628,5.209-11.628,11.626c0,3.925,1.96,7.377,4.935,9.477c-1.11,0.791-2.092,1.77-2.871,2.891
		c-2.128-2.423-5.219-3.983-8.709-3.983c-6.415,0-11.615,5.199-11.615,11.617c0,6.427,5.2,11.627,11.615,11.627
		c3.975,0,7.474-1.996,9.575-5.03c0.713,0.818,1.53,1.549,2.461,2.14c-3.23,2.063-5.391,5.665-5.391,9.791
		c0,3.556,1.637,6.693,4.155,8.823c-0.542,0.466-1.047,0.97-1.492,1.521c-2.122-2.853-5.485-4.716-9.309-4.716
		c-3.82,0-7.176,1.863-9.296,4.716c-0.617-0.755-1.334-1.423-2.116-2.007c2.646-2.13,4.342-5.391,4.342-9.056
		c0-6.418-5.206-11.619-11.622-11.619s-11.621,5.201-11.621,11.619c0,3.849,1.875,7.247,4.75,9.362
		c-0.754,0.613-1.436,1.309-2.016,2.09c-0.016,0.005-0.051,0.009-0.055,0.015c-2.13-2.671-5.372-4.412-9.05-4.412
		c-3.604,0-6.789,1.674-8.918,4.25c-2.12-2.768-5.428-4.572-9.184-4.572c-6.417,0-11.618,5.199-11.618,11.616
		c0,4.111,2.141,7.718,5.362,9.786c-0.968,0.632-1.843,1.396-2.587,2.276c-0.019,0.027-0.041,0.052-0.061,0.079
		c-2.132-2.608-5.372-4.275-9.003-4.275c-3.471,0-6.577,1.529-8.707,3.941c-2.115-2.883-5.518-4.765-9.366-4.765
		c-3.726,0-7.006,1.788-9.131,4.515c-0.428-0.54-0.888-1.043-1.401-1.511c2.371-2.12,3.892-5.18,3.892-8.613
		c0-6.425-5.204-11.626-11.621-11.626c-3.517,0-6.631,1.597-8.764,4.06c-2.101-2.994-5.562-4.952-9.502-4.952
		c-6.422,0-11.625,5.199-11.625,11.616c0,3.938,1.965,7.415,4.963,9.518c-1.06,0.761-1.977,1.7-2.729,2.767
		c-2.103-2.99-5.575-4.95-9.507-4.95c-0.095,0-0.186,0.012-0.28,0.014c-0.074-0.001-0.146-0.014-0.22-0.014
		c-2.802,0-5.369,0.997-7.376,2.649l0.123,0.332c-2.342,2.103-3.829,5.134-3.862,8.521c-0.078,0.544-0.132,1.097-0.132,1.663
		c0,2.929,1.109,5.571,2.904,7.602h0.3c-0.252,0.274-0.493,0.557-0.719,0.855c-2.111-2.198-5.071-3.573-8.359-3.573
		c-3.479,0-6.586,1.529-8.715,3.941c-0.341-0.438-0.723-0.839-1.123-1.223h0.546c1.627-1.841,2.685-4.187,2.87-6.79
		c0.098-0.606,0.165-1.224,0.165-1.858c0-3.221-1.312-6.134-3.429-8.238c0.021-0.065,0.035-0.11,0.031-0.114h-0.157
		c-0.144-0.139-0.292-0.271-0.443-0.403v-0.24c-2.079-2.018-4.885-3.291-8.012-3.291c-3.733,0-7.011,1.779-9.136,4.505
		c-0.59-0.75-1.264-1.425-2.02-2.015c2.723-2.129,4.505-5.409,4.505-9.126c0-6.425-5.194-11.626-11.621-11.626
		c-3.723,0-7.002,1.787-9.128,4.505c-0.255-0.326-0.529-0.636-0.815-0.934c1.993-2.086,3.225-4.908,3.225-8.025
		c0-6.418-5.206-11.619-11.622-11.619c-6.417,0-11.622,5.201-11.622,11.619c0,3.16,1.263,6.019,3.305,8.113
		c-0.256,0.272-0.506,0.55-0.736,0.845c-2.126-2.728-5.403-4.505-9.131-4.505c-6.417,0-11.621,5.201-11.621,11.626
		c0,3.718,1.783,6.998,4.51,9.126c-0.756,0.59-1.43,1.265-2.02,2.015c-2.126-2.726-5.405-4.505-9.131-4.505
		c-3.431,0-6.471,1.519-8.591,3.885c-0.493-0.773-1.072-1.484-1.729-2.118c2.247-2.114,3.68-5.08,3.68-8.402
		c0-6.425-5.205-11.626-11.618-11.626c-6.43,0-11.631,5.201-11.631,11.626c0,3.263,1.377,6.187,3.555,8.293
		c-2.257,2.119-3.675,5.121-3.675,8.461c0,3.541,1.585,6.703,4.077,8.834c-0.69,0.537-1.323,1.143-1.876,1.819
		c-2.131-2.606-5.371-4.271-9-4.271c-3.515,0-6.659,1.566-8.79,4.032c-0.539-0.623-1.143-1.184-1.801-1.68
		c2.426-2.13,3.966-5.247,3.966-8.733c0-6.418-5.206-11.619-11.622-11.619c-6.417,0-11.622,5.201-11.622,11.619
		c0,2.69,0.921,5.158,2.452,7.126c0.598,0.831,1.298,1.582,2.087,2.232c-0.737,0.661-1.394,1.408-1.943,2.236
		c-2.124-2.733-5.403-4.521-9.14-4.521c-3.68,0-6.922,1.739-9.051,4.412c-0.479-0.599-1.02-1.137-1.604-1.63
		c2.56-2.132,4.192-5.342,4.192-8.938c0-0.14-0.016-0.276-0.021-0.416c0-0.025,0.004-0.049,0.004-0.074
		c0-6.417-5.196-11.627-11.623-11.627c-3.174,0-6.024,1.295-8.108,3.371v0.446c-2.155,2.109-3.496,5.046-3.496,8.299
		c0,3.589,1.625,6.792,4.176,8.924c-2.539,2.131-4.193,5.284-4.193,8.858c0,3.726,1.787,7.007,4.517,9.127
		c-1.056,0.826-1.969,1.795-2.692,2.927c-2.13-2.5-5.261-4.116-8.804-4.116c-6.42,0-11.621,5.2-11.621,11.616
		c0,3.289,1.399,6.212,3.596,8.323c-1.059,1.217-1.873,2.65-2.354,4.232c-0.018,0.043-0.041,0.084-0.059,0.128
		c0.006-0.005,0.021-0.009,0.029-0.014c-0.305,1.04-0.476,2.137-0.476,3.276c0,6.407,5.204,11.618,11.626,11.618
		c2.234,0,4.313-0.643,6.085-1.736c0.597,0.428,1.15,0.908,1.656,1.438c-1.479,1.95-2.367,4.374-2.367,7.014
		c0,3.102,1.227,5.916,3.214,8.001c-0.53,0.699-1.13,1.343-1.802,1.905c-1.911-1.378-4.25-2.199-6.786-2.199
		c-3.785,0-7.136,1.813-9.258,4.61c-0.09,0.107-0.192,0.202-0.278,0.312c-2.129-2.719-5.41-4.505-9.131-4.505
		c-0.101,0-0.185,0.027-0.286,0.027c-0.094,0-0.179-0.027-0.28-0.027c-6.421,0-11.621,5.199-11.621,11.626
		c0,6.407,5.2,11.615,11.621,11.615c0.101,0,0.187-0.028,0.28-0.028c0.101,0,0.186,0.028,0.286,0.028
		c3.721,0,7.002-1.785,9.131-4.516c0.808,1.036,1.764,1.939,2.867,2.654c-3.114,2.089-5.167,5.637-5.167,9.668
		c0,6.408,5.21,11.617,11.625,11.617c6.417,0,11.623-5.209,11.623-11.617c0-4.107-2.145-7.7-5.357-9.774
		c0.62-0.411,1.18-0.9,1.698-1.432c0.344-0.309,0.669-0.636,0.974-0.983c2.122,2.809,5.48,4.635,9.273,4.635
		c3.744,0,7.064-1.78,9.19-4.529c0.741,0.909,1.591,1.722,2.574,2.368c-3.167,2.072-5.263,5.647-5.263,9.716
		c0,6.408,5.205,11.617,11.622,11.617c3.697,0,6.955-1.77,9.083-4.46c0.447,0.57,0.936,1.085,1.479,1.561
		c-2.386,2.128-3.916,5.189-3.916,8.64c0,3.699,1.758,6.959,4.458,9.091c-2.757,2.127-4.563,5.419-4.563,9.173
		c0,6.417,5.206,11.616,11.623,11.616c3.863,0,7.257-1.899,9.372-4.8c2.13,2.624,5.347,4.344,8.994,4.344
		c6.408,0,11.618-5.211,11.618-11.618c0-6.415-5.21-11.626-11.618-11.626c-3.86,0-7.257,1.902-9.374,4.8
		c-0.547-0.674-1.154-1.273-1.83-1.815c2.751-2.118,4.56-5.417,4.56-9.164c0-3.499-1.579-6.587-4.018-8.726
		c0.528-0.468,1.007-0.988,1.441-1.54c2.133,2.49,5.266,4.116,8.807,4.116c3.884,0,7.317-1.921,9.428-4.855
		c0.516,0.623,1.101,1.185,1.735,1.686c-2.515,2.133-4.114,5.312-4.114,8.863c0,6.408,5.201,11.619,11.631,11.619
		c3.509,0,6.617-1.588,8.747-4.052c2.101,2.996,5.57,4.963,9.512,4.963c3.699,0,6.958-1.755,9.087-4.453
		c0.552,0.65,1.178,1.233,1.858,1.749c-2.827,2.12-4.676,5.465-4.676,9.272c0,1.204,0.183,2.364,0.522,3.457
		c1.405,4.843,5.864,8.381,11.155,8.381c4.058,0,7.627-2.083,9.706-5.237c0.742,0.756,1.589,1.406,2.513,1.938
		c-2.928,2.109-4.842,5.539-4.842,9.424c0,6.427,5.205,11.626,11.622,11.626c6.416,0,11.622-5.199,11.622-11.626
		c0-4.268-2.309-7.987-5.738-10.008c0.984-0.703,1.863-1.544,2.59-2.51c2.121,2.816,5.482,4.644,9.278,4.644
		c2.81,0,5.387-0.997,7.396-2.657c2.631-2.131,4.315-5.385,4.315-9.04c0-3.425-1.519-6.459-3.882-8.581
		c0.642-0.622,1.21-1.318,1.696-2.073c0.853,1.007,1.872,1.863,3.009,2.539c1.799,1.142,3.927,1.812,6.215,1.812
		c3.663,0,6.926-1.698,9.056-4.348c0.558,0.656,1.165,1.261,1.855,1.779c-1.46,1.099-2.649,2.53-3.464,4.178
		c-0.869,1.628-1.365,3.487-1.365,5.464c0,6.408,5.204,11.619,11.626,11.619c6.417,0,11.621-5.211,11.621-11.619
		c0-2.668-0.906-5.117-2.415-7.077c0.615-0.861,1.339-1.638,2.162-2.302c2.002,1.632,4.556,2.614,7.34,2.614
		c2.764,0,5.299-0.971,7.294-2.583c0.733,0.598,1.384,1.289,1.953,2.047c-1.613,1.995-2.582,4.532-2.582,7.301
		c0,6.408,5.204,11.619,11.626,11.619c5.215,0,9.628-3.441,11.099-8.169c0.589-1.392,0.915-2.92,0.915-4.525
		c0-4.153-2.211-7.759-5.496-9.808c0.901-0.612,1.71-1.349,2.406-2.184c2.129,2.549,5.285,4.204,8.866,4.204
		c6.427,0,11.626-5.208,11.626-11.625c0-3.593-1.674-6.77-4.24-8.898c0.572-0.479,1.084-1.012,1.557-1.584
		c2.104,2.973,5.563,4.922,9.484,4.922c3.259,0,6.195-1.353,8.306-3.515c0.448,0.587,0.951,1.128,1.501,1.618
		c-1.952,2.072-3.172,4.841-3.172,7.913c0,6.409,5.202,11.617,11.629,11.617c6.426,0,11.621-5.208,11.621-11.617
		c0-3.442-1.499-6.52-3.868-8.647c0.608-0.65,1.144-1.369,1.591-2.147c2.113,2.895,5.532,4.778,9.393,4.778
		c3.022,0,5.767-1.165,7.834-3.057c2.066,1.892,4.811,3.057,7.834,3.057c6.418,0,11.623-5.209,11.623-11.616
		c0-2.136-0.586-4.131-1.592-5.852c0.319-0.026,0.626-0.053,0.942-0.079c2.073,1.921,4.842,3.104,7.896,3.104
		c3.793,0,7.146-1.819,9.264-4.623c0.347-0.033,0.703-0.067,1.039-0.1c-1.739,2.032-2.795,4.666-2.795,7.549
		c0,6.407,5.201,11.616,11.621,11.616c3.106,0,5.918-1.229,8.002-3.216c2.117,2.854,5.502,4.716,9.331,4.716
		c0.037,0,0.073-0.005,0.11-0.006c0.308,0.025,0.613,0.056,0.928,0.056c3.727,0,7.006-1.786,9.126-4.516
		c0.701,0.898,1.537,1.683,2.463,2.347c-2.989,2.102-4.943,5.57-4.943,9.504c0,6.416,5.189,11.626,11.616,11.626
		c3.49,0,6.578-1.569,8.709-3.993c2.119,2.795,5.447,4.63,9.23,4.63c6.428,0,11.616-5.209,11.616-11.617
		c0-3.831-1.873-7.207-4.732-9.326c1.214-0.829,2.252-1.888,3.074-3.104c2.127,2.364,5.199,3.861,8.628,3.861
		c3.573,0,6.72-1.644,8.851-4.173c2.128,2.433,5.229,4.012,8.718,4.012c6.426,0,11.616-5.209,11.616-11.637
		c0-3.166-1.303-5.99-3.367-8.082c2.339-2.125,3.814-5.18,3.814-8.588c0-3.784-1.811-7.133-4.604-9.255
		c0.939-0.713,1.767-1.562,2.45-2.522c2.12,2.815,5.48,4.644,9.278,4.644c6.427,0,11.626-5.199,11.626-11.616
		c0-3.478-1.53-6.587-3.945-8.717c-0.067-0.581-0.136-1.164-0.208-1.771c0.348-0.35,0.668-0.723,0.97-1.113
		c2.131,2.498,5.299,4.087,8.847,4.087c6.416,0,11.614-5.2,11.614-11.614c0-0.289-0.022-0.572-0.043-0.855
		c0.014,0.005,0.039,0.01,0.05,0.015c-0.015-0.02-0.036-0.056-0.054-0.081c-0.255-3.252-1.84-6.131-4.221-8.083
		c-0.105-0.14-0.203-0.255-0.279-0.306c2.604-2.13,4.308-5.323,4.308-8.955c0-3.469-1.549-6.549-3.956-8.678
		c3.053-2.092,5.067-5.609,5.067-9.594c0-0.093-0.015-0.182-0.017-0.274c0.005-0.145,0.021-0.287,0.021-0.433
		C548.558,114.86,543.367,109.65,536.94,109.65z M199.144,242.406c-2.115-2.889-5.521-4.772-9.375-4.772
		c-4.059,0-7.628,2.084-9.707,5.237c-0.445-0.453-0.931-0.864-1.444-1.239c2.888-2.114,4.772-5.521,4.772-9.379
		c0-3.704-1.738-6.996-4.439-9.12c0.469-0.37,0.907-0.776,1.313-1.214c2.1,2.996,5.568,4.96,9.504,4.96
		c3.678,0,6.952-1.713,9.082-4.382c0.481,0.449,0.996,0.862,1.547,1.225c-2.301,2.123-3.751,5.154-3.751,8.531
		c0,3.424,1.487,6.49,3.838,8.617C199.994,241.341,199.547,241.856,199.144,242.406z M256.574,204.961v-0.229
		c0.048,0.027,0.092,0.076,0.144,0.115C256.666,204.876,256.622,204.923,256.574,204.961z M472.377,115.599
		c-2.108-2.137-5.035-3.464-8.273-3.464c-3.142,0-5.991,1.248-8.083,3.273c-0.455-0.599-0.965-1.151-1.525-1.65
		c2.386-2.128,3.897-5.218,3.897-8.67c0-3.628-1.665-6.866-4.271-8.997c0.531-0.434,1.019-0.918,1.466-1.439
		c2.121,2.291,5.148,3.729,8.517,3.729c3.189,0,6.077-1.286,8.178-3.368c0.512,0.548,1.074,1.045,1.683,1.486
		c-2.338,2.125-3.815,5.18-3.815,8.589c0,3.453,1.512,6.542,3.897,8.67C473.426,114.31,472.866,114.926,472.377,115.599z"/>
	<path fill="#EF4270" d="M44.27,97.379c6.416,0,11.622-5.199,11.622-11.626c0-6.418-5.206-11.619-11.622-11.619
		c-6.417,0-11.622,5.201-11.622,11.619C32.647,92.18,37.853,97.379,44.27,97.379z"/>
	<path fill="#EF4270" d="M227.26,79.38c6.416,0,11.622-5.199,11.622-11.626c0-6.418-5.206-11.619-11.622-11.619
		c-6.417,0-11.622,5.201-11.622,11.619C215.638,74.181,220.843,79.38,227.26,79.38z"/>
</g>
<g>
	<path fill="#FFFFFF" d="M142.563,166.543c-0.487,0-0.81,0.327-0.81,0.813v20.28c0,0.894-0.729,1.624-1.624,1.624h-8.111
		c-0.891,0-1.624-0.73-1.624-1.624v-53.541c0-0.889,0.733-1.618,1.624-1.618h17.846c9.329,0,17.035,7.702,17.035,17.029
		c0,6.249-2.677,10.47-8.436,14.359c-1.138,0.814-1.055,1.466-0.487,2.677l8.679,20.284c0.566,1.211,0.08,2.434-1.542,2.434h-8.354
		c-1.298,0-1.946-0.651-2.354-1.624l-8.275-20.035c-0.161-0.409-0.565-1.059-1.46-1.059H142.563z M142.563,143.831
		c-0.487,0-0.81,0.322-0.81,0.809v9.735c0,0.487,0.323,0.815,0.81,0.815h7.301c3.083,0,5.679-2.513,5.679-5.682
		c0-3.078-2.595-5.677-5.679-5.677H142.563z"/>
	<path fill="#FFFFFF" d="M205.017,168.897c0-0.487-0.323-0.81-0.81-0.81h-5.518c-0.892,0-1.622-0.731-1.622-1.625v-7.702
		c0-0.894,0.73-1.624,1.622-1.624h15.818c0.895,0,1.625,0.73,1.625,1.624v13.629c0,9.728-8.193,17.76-19.308,17.76
		c-11.191,0-18.17-8.19-19.305-17.925c-0.812-6.813-0.812-15.897,0-22.717c1.135-9.729,8.114-17.924,19.305-17.924
		c11.195,0,19.308,7.708,19.308,18.496v0.08c0,0.815-0.73,1.625-1.625,1.625h-8.109c-0.891,0-1.625-0.73-1.625-1.625v-0.08
		c0-3.328-2.837-7.057-7.948-7.057c-4.947,0-7.462,2.92-7.867,6.486c-0.812,6.82-0.812,15.904,0,22.717
		c0.404,3.566,2.919,6.486,7.867,6.486c4.868,0,8.192-2.671,8.192-6.321V168.897z"/>
	<path fill="#FFFFFF" d="M251.332,179.685c-0.161-0.646-0.486-1.217-1.217-1.217h-12.329c-0.73,0-1.056,0.487-1.217,1.217
		l-2.272,8.354c-0.161,0.735-0.81,1.223-1.542,1.223h-8.515c-1.299,0-1.786-0.895-1.622-1.624l14.52-53.942
		c0.161-0.73,0.809-1.217,1.542-1.217h10.866c0.732,0,1.381,0.486,1.542,1.217l14.441,53.942c0.161,0.729-0.326,1.624-1.625,1.624
		h-8.518c-0.729,0-1.296-0.487-1.54-1.223L251.332,179.685z M248.413,166.22l-3.895-19.469c-0.079-0.243-0.165-0.322-0.404-0.322
		h-0.165c-0.24,0-0.322,0.079-0.404,0.322l-3.894,19.469c-0.162,0.65,0.16,0.895,0.65,0.895h7.462
		C248.251,167.114,248.576,166.87,248.413,166.22z"/>
	<path fill="#FFFFFF" d="M299.105,189.261c-1.378,0-1.95-0.73-2.19-1.381l-11.033-28.474c-0.161-0.487-0.731-0.323-0.731,0.164
		v28.066c0,0.894-0.73,1.624-1.622,1.624h-8.109c-0.894,0-1.625-0.73-1.625-1.624v-53.541c0-0.889,0.731-1.618,1.625-1.618h9.652
		c1.217,0,1.783,0.729,2.027,1.46l11.115,30.822c0.161,0.486,0.729,0.322,0.729-0.163v-30.5c0-0.889,0.729-1.618,1.623-1.618h8.107
		c0.894,0,1.624,0.729,1.624,1.618v53.541c0,0.894-0.73,1.624-1.624,1.624H299.105z"/>
	<path fill="#FFFFFF" d="M408.276,187.637c0,0.894-0.73,1.624-1.624,1.624h-8.11c-0.895,0-1.625-0.73-1.625-1.624v-53.541
		c0-0.889,0.73-1.618,1.625-1.618h8.11c0.894,0,1.624,0.729,1.624,1.618V187.637z"/>
	<path fill="#FFFFFF" d="M441.934,144.64v42.997c0,0.894-0.729,1.624-1.618,1.624h-8.116c-0.888,0-1.618-0.73-1.618-1.624V144.64
		c0-0.487-0.323-0.809-0.815-0.809h-10.137c-0.894,0-1.624-0.729-1.624-1.625v-8.11c0-0.889,0.73-1.618,1.624-1.618h33.257
		c0.895,0,1.624,0.729,1.624,1.618v8.11c0,0.895-0.729,1.625-1.624,1.625H442.75C442.262,143.831,441.934,144.153,441.934,144.64z"
		/>
	<path fill="#FFFFFF" d="M482.734,156.163c0.164,0.487,0.81,0.487,0.974,0l7.787-22.468c0.323-0.895,0.81-1.217,1.54-1.217h8.925
		c1.053,0,1.782,1.052,1.297,2.269l-14.359,36.176v16.714c0,0.894-0.729,1.624-1.618,1.624h-8.116c-0.889,0-1.619-0.73-1.619-1.624
		v-16.714l-14.357-36.176c-0.487-1.217,0.242-2.269,1.296-2.269h8.925c0.73,0,1.217,0.322,1.539,1.217L482.734,156.163z"/>
	<path fill="#FFFFFF" d="M334.871,187.637c0,0.894-0.729,1.624-1.619,1.624h-8.116c-0.888,0-1.623-0.73-1.623-1.624v-53.541
		c0-0.889,0.735-1.618,1.623-1.618h8.116c0.89,0,1.619,0.729,1.619,1.618V187.637z"/>
	<path fill="#FFFFFF" d="M385.734,171.653c0,10.872-8.116,18.496-19.312,18.496c-11.194,0-18.167-8.19-19.304-17.925
		c-0.81-6.813-0.81-15.897,0-22.717c1.137-9.729,8.109-17.924,19.304-17.924c11.195,0,19.312,7.708,19.312,18.496v0.08
		c0,0.815-0.73,1.625-1.624,1.625H376c-0.894,0-1.625-0.73-1.625-1.625v-0.08c0-3.328-2.841-7.057-7.952-7.057
		c-4.945,0-7.459,2.92-7.866,6.486c-0.809,6.82-0.809,15.904,0,22.717c0.407,3.566,2.921,6.486,7.866,6.486
		c4.789,0,7.952-3.486,7.952-6.973v-0.085c0-0.889,0.731-1.704,1.625-1.704h8.11c0.894,0,1.624,0.735,1.624,1.626V171.653z"/>
	<path fill="#FFFFFF" d="M118.153,149.507c0.809,6.82,0.809,15.904,0,22.717c-1.137,9.734-8.113,17.925-19.308,17.925
		c-11.192,0-18.17-8.19-19.305-17.925c-0.812-6.813-0.812-15.897,0-22.717c1.134-9.729,8.113-17.924,19.305-17.924
		C110.04,131.583,117.016,139.778,118.153,149.507z M106.715,172.225c0.812-6.813,0.812-15.897,0-22.717
		c-0.404-3.566-2.919-6.486-7.869-6.486c-4.946,0-7.462,2.92-7.867,6.486c-0.812,6.82-0.812,15.904,0,22.717
		c0.405,3.566,2.921,6.486,7.867,6.486C103.795,178.711,106.311,175.791,106.715,172.225z"/>
</g>
</svg>
