<?xml version='1.0' encoding='iso-8859-1'?>
<!DOCTYPE svg PUBLIC '-//W3C//DTD SVG 1.1//EN' 'http://www.w3.org/Graphics/SVG/1.1/DTD/svg11.dtd'>
<svg version="1.1" xmlns="http://www.w3.org/2000/svg" viewBox="0 0 230.305 230.305" xmlns:xlink="http://www.w3.org/1999/xlink" enable-background="new 0 0 230.305 230.305">
  <g>
    <path d="m145.956,165.106c1.986-2.653 1.445-6.413-1.207-8.399l-23.596-17.667v-24.178c0-3.313-2.687-6-6-6s-6,2.687-6,6v24.178l-23.596,17.667c-2.652,1.986-3.193,5.747-1.207,8.399 1.986,2.653 5.746,3.193 8.399,1.207l22.404-16.774 22.404,16.774c1.079,0.808 2.34,1.198 3.592,1.198 1.825-0.001 3.628-0.831 4.807-2.405z"/>
    <path d="M115.152,52.498c14.474,0,26.249-11.775,26.249-26.249S129.626,0,115.152,0S88.903,11.775,88.903,26.249   S100.679,52.498,115.152,52.498z M115.152,12c7.857,0,14.249,6.392,14.249,14.249s-6.392,14.249-14.249,14.249   s-14.249-6.392-14.249-14.249S107.295,12,115.152,12z"/>
    <path d="m81.404,98.109h67.497c3.313,0 6-2.687 6-6v-14.8c0-10.862-8.836-19.698-19.698-19.698h-40.101c-10.862,0-19.698,8.836-19.698,19.698v14.8c0,3.314 2.686,6 6,6zm61.497-20.8v8.8h-21.749v-16.498h14.05c4.245,0 7.699,3.453 7.699,7.698zm-55.497,0c0-4.245 3.454-7.698 7.698-7.698h14.05v16.499h-21.748v-8.801z"/>
    <path d="m49.376,184.693c14.474,0 26.249-11.775 26.249-26.249s-11.775-26.249-26.249-26.249-26.249,11.775-26.249,26.249 11.776,26.249 26.249,26.249zm0-40.498c7.857,0 14.249,6.392 14.249,14.249s-6.392,14.249-14.249,14.249-14.249-6.392-14.249-14.249 6.393-14.249 14.249-14.249z"/>
    <path d="m69.427,189.806h-40.101c-10.861,0-19.698,8.836-19.698,19.698v14.8c0,3.313 2.687,6 6,6h67.497c3.313,0 6-2.687 6-6v-14.8c0-10.861-8.836-19.698-19.698-19.698zm-47.799,19.698c0-4.245 3.453-7.698 7.698-7.698h14.05v16.499h-21.748v-8.801zm55.497,8.801h-21.749v-16.499h14.05c4.245,0 7.698,3.454 7.698,7.698v8.801z"/>
    <path d="m180.928,184.693c14.474,0 26.249-11.775 26.249-26.249s-11.775-26.249-26.249-26.249-26.249,11.775-26.249,26.249 11.776,26.249 26.249,26.249zm0-40.498c7.857,0 14.249,6.392 14.249,14.249s-6.392,14.249-14.249,14.249-14.249-6.392-14.249-14.249 6.392-14.249 14.249-14.249z"/>
    <path d="m200.979,189.806h-40.101c-10.862,0-19.698,8.836-19.698,19.698v14.8c0,3.313 2.687,6 6,6h67.497c3.313,0 6-2.687 6-6v-14.8c-0.001-10.861-8.837-19.698-19.698-19.698zm-47.799,19.698c0-4.245 3.454-7.698 7.698-7.698h14.05v16.499h-21.748v-8.801zm55.496,8.801h-21.748v-16.499h14.05c4.245,0 7.698,3.454 7.698,7.698v8.801z"/>
  </g>
</svg>
