<?xml version="1.0" standalone="no"?>
<!DOCTYPE svg PUBLIC "-//W3C//DTD SVG 20010904//EN"
 "http://www.w3.org/TR/2001/REC-SVG-20010904/DTD/svg10.dtd">
<svg version="1.0" xmlns="http://www.w3.org/2000/svg" width="270.000000pt" height="270.000000pt" viewBox="0 0 270.000000 270.000000" preserveAspectRatio="xMidYMid meet">
    <metadata>
        Created by potrace 1.13, written by Peter Selinger 2001-2015
    </metadata>
    <g transform="translate(0.000000,270.000000) scale(0.100000,-0.100000)" fill="#EF4070" stroke="none">
        <path d="M1165 2404 c-116 -25 -208 -77 -300 -169 -94 -94 -145 -185 -169
-307 -30 -146 -13 -268 55 -408 58 -116 153 -210 270 -267 107 -52 160 -64
279 -64 180 0 300 51 430 181 140 139 186 259 177 460 -6 139 -28 210 -99 317
-140 208 -393 309 -643 257z m260 -69 c220 -56 384 -238 417 -461 23 -157 -36
-334 -149 -451 -217 -224 -562 -226 -784 -4 -135 135 -190 333 -143 515 75
290 376 473 659 401z" />
        <path d="M2121 1990 l-23 -130 27 -32 c26 -30 27 -36 23 -130 l-3 -98 43 0 42
0 0 103 c0 92 2 105 23 131 l23 29 -16 91 c-10 50 -20 108 -24 129 -7 36 -8
37 -50 37 l-43 0 -22 -130z" />
        <path d="M2011 1514 c-31 -39 -26 -76 13 -123 19 -23 37 -54 41 -71 8 -36 -9
-91 -34 -114 -16 -15 -19 -14 -47 15 -44 47 -140 119 -159 119 -8 0 -46 -25
-83 -56 -144 -119 -298 -171 -481 -161 -167 9 -301 65 -425 178 -30 27 -57 49
-61 49 -16 0 -128 -95 -196 -168 -210 -224 -296 -532 -237 -845 l11 -57 946 2
946 3 12 65 c7 36 12 99 13 141 0 71 2 77 31 105 58 55 59 61 59 326 l0 243
-30 45 c-20 30 -30 57 -30 83 0 37 26 97 42 97 16 0 40 63 33 89 -15 58 -24
61 -191 61 l-153 0 -20 -26z m-1173 -306 c254 -194 603 -210 867 -38 34 22 72
51 85 65 13 14 30 25 37 25 7 0 49 -34 93 -76 l80 -77 0 -191 c0 -105 5 -208
11 -229 20 -74 98 -137 170 -137 l31 0 -6 -62 c-4 -35 -9 -80 -12 -100 l-6
-38 -888 0 c-593 0 -891 3 -895 10 -4 6 -9 59 -12 118 -12 231 57 440 207 629
39 49 152 153 166 153 3 0 35 -23 72 -52z m1312 -308 c0 -241 -1 -250 -19
-250 -45 0 -51 31 -51 251 l0 208 26 20 c15 12 31 21 35 21 5 0 9 -112 9 -250z
m130 230 c19 -19 20 -33 20 -232 0 -183 -2 -214 -17 -230 -9 -10 -24 -18 -35
-18 -17 0 -18 13 -18 243 0 273 2 285 50 237z" />
    </g>
</svg>
