<?xml version='1.0' encoding='iso-8859-1'?>
<svg version="1.1" xmlns="http://www.w3.org/2000/svg" viewBox="0 0 262.758 262.758" xmlns:xlink="http://www.w3.org/1999/xlink" enable-background="new 0 0 262.758 262.758">
  <g>
    <g>
      <path d="m130.509,123.549c-5.22,0-8.701,3.48-8.701,8.701v52.204c0,5.22 3.48,8.701 8.701,8.701 5.22,0 8.701-3.48 8.701-8.701v-52.204c2.84217e-14-5.221-3.481-8.701-8.701-8.701z"/>
      <path d="m123.549,73.085c-1.74,1.74-1.74,5.22-1.74,6.96 0,3.48 0,5.22 1.74,6.96 1.74,0 5.22,1.74 6.96,1.74s5.22-1.74 6.96-3.48c0,0 1.74-3.48 1.74-5.22 0-3.48-1.74-5.22-3.48-6.96-3.48-3.48-8.7-3.48-12.18,1.42109e-14z"/>
      <path d="M222.735,0H40.023C17.401,0,0,19.141,0,40.023v182.713c0,22.621,19.141,40.023,40.023,40.023h182.713    c20.882,0,38.283-17.401,40.023-40.023V40.023C262.758,17.401,243.617,0,222.735,0z M245.357,224.475    c0,12.181-10.441,22.621-22.621,22.621H40.023c-12.181,0-22.621-10.441-22.621-22.621V41.763    c0-12.181,10.441-22.621,22.621-22.621h182.713c12.181,0,22.621,10.441,22.621,22.621V224.475z"/>
    </g>
  </g>
</svg>
