<?xml version='1.0' encoding='iso-8859-1'?>
<svg version="1.1" xmlns="http://www.w3.org/2000/svg" viewBox="0 0 441.592 441.592" xmlns:xlink="http://www.w3.org/1999/xlink" enable-background="new 0 0 441.592 441.592">
  <path d="m431.092,420.592h-128.29v-84.147h19.54c2.853,0 5.583-1.161 7.562-3.216l101.396-105.261c3.601-3.737 3.93-9.545 0.776-13.666l-56.208-73.436 16.333-18.609c3.478-3.962 3.478-9.89 0-13.852l-92.008-104.831c-1.993-2.272-4.869-3.574-7.891-3.574s-5.898,1.303-7.892,3.574l-92.006,104.831c-3.478,3.962-3.478,9.89 0,13.853l16.333,18.608-56.207,73.436c-3.154,4.121-2.825,9.929 0.776,13.666l101.396,105.261c1.979,2.055 4.709,3.216 7.562,3.216h19.538v84.147h-148.299v-84.147h68.33c5.799,0 10.5-4.701 10.5-10.5s-4.701-10.5-10.5-10.5h-169.411l90.581-271.74 30.648,91.945c1.834,5.502 7.781,8.475 13.282,6.641 5.501-1.834 8.475-7.78 6.641-13.281l-40.61-121.83c-1.43-4.288-5.442-7.18-9.961-7.18-4.52,0-8.532,2.892-9.961,7.18l-105.149,315.444c-1.067,3.202-0.53,6.722 1.443,9.46s5.143,4.36 8.518,4.36h94.649v84.147h-102.003c-5.799,0-10.5,4.701-10.5,10.5s4.701,10.5 10.5,10.5h420.592c5.799,0 10.5-4.701 10.5-10.5s-4.701-10.499-10.5-10.499zm-138.79-210.296c-5.799,0-10.5,4.701-10.5,10.5v31.401l-24.027-20.21c-4.437-3.733-11.061-3.161-14.794,1.276-3.733,4.438-3.162,11.062 1.276,14.794l37.544,31.581v35.806h-15.073l-92.038-95.546 55.955-73.105c3.042-3.976 2.856-9.546-0.446-13.308l-15.933-18.154 78.036-88.913 78.037,88.913-15.933,18.154c-3.302,3.762-3.489,9.332-0.446,13.308l55.955,73.105-92.038,95.546h-15.075v-35.806l37.544-31.581c4.438-3.732 5.009-10.356 1.276-14.794-3.732-4.438-10.357-5.01-14.794-1.276l-24.027,20.21v-31.401c0.001-5.799-4.7-10.5-10.499-10.5z"/>
</svg>
