<?xml version="1.0" encoding="utf-8"?>
<!-- Generator: Adobe Illustrator 16.0.0, SVG Export Plug-In . SVG Version: 6.00 Build 0)  -->
<!DOCTYPE svg PUBLIC "-//W3C//DTD SVG 1.1//EN" "http://www.w3.org/Graphics/SVG/1.1/DTD/svg11.dtd">
<svg version="1.1" id="Layer_1" xmlns="http://www.w3.org/2000/svg" xmlns:xlink="http://www.w3.org/1999/xlink" x="0px" y="0px"
	 width="535.113px" height="262.895px" viewBox="0 0 535.113 262.895" enable-background="new 0 0 535.113 262.895"
	 xml:space="preserve">
<g>
	<path fill="#FFFFFF" d="M211.979,239.651c-6.417,0-11.622,5.201-11.622,11.619c0,6.426,5.205,11.625,11.622,11.625
		c6.416,0,11.622-5.199,11.622-11.625C223.6,244.852,218.395,239.651,211.979,239.651z"/>
	<path fill="#FFFFFF" d="M523.486,60.78c6.428,0,11.627-5.199,11.627-11.616c0-6.427-5.199-11.627-11.627-11.627
		c-6.418,0-11.619,5.2-11.619,11.627C511.867,55.581,517.068,60.78,523.486,60.78z"/>
	<path fill="#FFFFFF" d="M30.479,79.896c6.416,0,11.622-5.199,11.622-11.626c0-6.418-5.206-11.619-11.622-11.619
		c-6.417,0-11.622,5.201-11.622,11.619C18.856,74.696,24.062,79.896,30.479,79.896z"/>
	<path fill="#FFFFFF" d="M213.469,61.896c6.416,0,11.622-5.199,11.622-11.626c0-6.418-5.206-11.619-11.622-11.619
		c-6.417,0-11.622,5.201-11.622,11.619C201.847,56.697,207.052,61.896,213.469,61.896z"/>
	<g>
		<path fill="#FFFFFF" d="M136.074,126.347h-7.301c-0.487,0-0.81,0.322-0.81,0.809v9.735c0,0.486,0.323,0.814,0.81,0.814h7.301
			c3.083,0,5.679-2.513,5.679-5.682C141.752,128.946,139.157,126.347,136.074,126.347z"/>
		<path fill="#FFFFFF" d="M230.727,129.268c-0.079-0.243-0.165-0.322-0.404-0.322h-0.165c-0.24,0-0.322,0.079-0.404,0.322
			l-3.894,19.469c-0.162,0.65,0.16,0.895,0.65,0.895h7.462c0.487,0,0.812-0.244,0.648-0.895L230.727,129.268z"/>
		<path fill="#FFFFFF" d="M534.761,104.5c0-0.093-0.014-0.182-0.016-0.274c0.004-0.145,0.021-0.287,0.021-0.433
			c0-6.416-5.191-11.626-11.617-11.626c-2.82,0-5.406,1.007-7.42,2.68c-0.867-0.011-1.771-0.021-2.709-0.033
			c1.746-2.021,2.822-4.624,2.822-7.496c0-3.634-1.664-6.875-4.271-9.005c3.129-2.081,5.207-5.609,5.207-9.648
			c0-4.987-3.135-9.223-7.541-10.876c-1.377-0.578-2.887-0.902-4.475-0.902c-3.564,0-6.711,1.636-8.852,4.164
			c-0.678-0.94-1.502-1.762-2.42-2.466c1.875-1.435,3.285-3.432,4.014-5.733c0.059-0.176,0.111-0.354,0.162-0.534
			c0.031-0.121,0.064-0.24,0.094-0.362c0.221-0.896,0.352-1.827,0.352-2.792c0-6.427-5.199-11.627-11.627-11.627
			c-3.611,0-6.836,1.646-8.967,4.23c-2.121-2.824-5.484-4.663-9.289-4.663c-6.416,0-11.617,5.208-11.617,11.626
			c0,4.325,2.387,8.052,5.883,10.057c-0.203,0.116-0.395,0.248-0.59,0.375c-1.119,0.545-2.141,1.258-3.025,2.117
			c-2.125-2.582-5.305-4.259-8.91-4.259s-6.785,1.667-8.914,4.239c-0.076-0.074-0.158-0.143-0.236-0.214
			c-0.691-0.885-1.502-1.684-2.432-2.342c2.986-2.102,4.943-5.553,4.943-9.479c0-4.078-2.109-7.653-5.297-9.725
			c3.188-2.082,5.297-5.657,5.297-9.735c0-6.416-5.209-11.616-11.627-11.616c-3.916,0-7.367,1.948-9.467,4.915
			c-0.629-0.731-1.322-1.398-2.113-1.96c2.986-2.099,4.936-5.551,4.936-9.477C425.06,5.209,419.871,0,413.443,0
			s-11.627,5.209-11.627,11.626c0,3.925,1.959,7.377,4.934,9.477c-1.109,0.791-2.092,1.77-2.871,2.891
			c-2.127-2.423-5.219-3.983-8.709-3.983c-6.414,0-11.615,5.199-11.615,11.617c0,6.427,5.201,11.627,11.615,11.627
			c3.975,0,7.475-1.996,9.576-5.03c0.713,0.818,1.529,1.549,2.461,2.14c-3.23,2.063-5.391,5.665-5.391,9.791
			c0,3.556,1.637,6.693,4.154,8.823c-0.541,0.466-1.047,0.97-1.492,1.521c-2.121-2.853-5.484-4.716-9.309-4.716
			c-3.82,0-7.176,1.863-9.295,4.716c-0.617-0.755-1.334-1.423-2.117-2.007c2.646-2.13,4.342-5.391,4.342-9.056
			c0-6.418-5.205-11.619-11.621-11.619s-11.621,5.201-11.621,11.619c0,3.849,1.875,7.247,4.75,9.362
			c-0.754,0.613-1.436,1.309-2.016,2.09c-0.016,0.005-0.051,0.009-0.055,0.015c-2.131-2.671-5.373-4.412-9.051-4.412
			c-3.604,0-6.789,1.674-8.918,4.25c-2.119-2.768-5.428-4.572-9.184-4.572c-6.416,0-11.617,5.199-11.617,11.616
			c0,4.111,2.141,7.718,5.361,9.786c-0.967,0.632-1.842,1.396-2.586,2.276c-0.02,0.027-0.041,0.052-0.061,0.079
			c-2.133-2.608-5.373-4.275-9.004-4.275c-3.471,0-6.576,1.529-8.707,3.941c-2.115-2.883-5.518-4.765-9.365-4.765
			c-3.727,0-7.006,1.788-9.131,4.515c-0.428-0.54-0.889-1.043-1.402-1.511c2.371-2.12,3.893-5.18,3.893-8.613
			c0-6.425-5.205-11.626-11.621-11.626c-3.518,0-6.631,1.597-8.765,4.06c-2.101-2.994-5.562-4.952-9.503-4.952
			c-6.421,0-11.625,5.199-11.625,11.616c0,3.938,1.965,7.415,4.963,9.518c-1.06,0.761-1.977,1.7-2.729,2.767
			c-2.103-2.99-5.575-4.95-9.507-4.95c-0.095,0-0.186,0.012-0.28,0.014c-0.074-0.001-0.146-0.014-0.22-0.014
			c-2.802,0-5.369,0.997-7.376,2.649l0.123,0.332c-2.342,2.103-3.829,5.134-3.862,8.521c-0.078,0.544-0.132,1.097-0.132,1.663
			c0,2.929,1.109,5.571,2.904,7.602h0.3c-0.252,0.274-0.493,0.557-0.719,0.855c-2.111-2.198-5.071-3.573-8.359-3.573
			c-3.479,0-6.586,1.529-8.715,3.941c-0.341-0.438-0.723-0.839-1.123-1.223h0.546c1.627-1.841,2.685-4.187,2.87-6.79
			c0.098-0.606,0.165-1.224,0.165-1.858c0-3.221-1.312-6.134-3.429-8.238c0.021-0.065,0.035-0.11,0.031-0.114h-0.157
			c-0.144-0.139-0.292-0.271-0.443-0.403v-0.24c-2.079-2.018-4.885-3.291-8.012-3.291c-3.733,0-7.011,1.779-9.136,4.505
			c-0.59-0.75-1.264-1.425-2.02-2.015c2.723-2.129,4.505-5.409,4.505-9.126c0-6.425-5.194-11.626-11.621-11.626
			c-3.723,0-7.002,1.787-9.128,4.505c-0.255-0.326-0.529-0.636-0.815-0.934c1.993-2.086,3.225-4.908,3.225-8.025
			c0-6.418-5.206-11.619-11.622-11.619c-6.417,0-11.622,5.201-11.622,11.619c0,3.16,1.263,6.019,3.305,8.113
			c-0.256,0.272-0.506,0.55-0.736,0.845c-2.126-2.728-5.403-4.505-9.131-4.505c-6.417,0-11.621,5.201-11.621,11.626
			c0,3.718,1.783,6.998,4.51,9.126c-0.756,0.59-1.43,1.265-2.02,2.015c-2.126-2.726-5.405-4.505-9.131-4.505
			c-3.431,0-6.471,1.519-8.591,3.885c-0.493-0.773-1.072-1.484-1.729-2.118c2.247-2.114,3.68-5.08,3.68-8.402
			c0-6.425-5.205-11.626-11.618-11.626c-6.43,0-11.631,5.201-11.631,11.626c0,3.263,1.377,6.187,3.555,8.293
			c-2.257,2.119-3.675,5.121-3.675,8.461c0,3.541,1.585,6.703,4.077,8.834c-0.69,0.537-1.323,1.143-1.876,1.819
			c-2.131-2.606-5.371-4.271-9-4.271c-3.515,0-6.659,1.566-8.79,4.032c-0.539-0.623-1.143-1.184-1.801-1.68
			c2.426-2.13,3.966-5.247,3.966-8.733c0-6.418-5.206-11.619-11.622-11.619c-6.417,0-11.622,5.201-11.622,11.619
			c0,2.69,0.921,5.158,2.452,7.126c0.598,0.831,1.298,1.582,2.087,2.232c-0.737,0.661-1.394,1.408-1.943,2.236
			c-2.124-2.733-5.403-4.521-9.14-4.521c-3.68,0-6.922,1.739-9.051,4.412c-0.479-0.599-1.02-1.137-1.604-1.63
			c2.56-2.132,4.192-5.342,4.192-8.938c0-0.14-0.016-0.276-0.021-0.416c0-0.025,0.004-0.049,0.004-0.074
			c0-6.417-5.196-11.627-11.623-11.627c-3.174,0-6.024,1.295-8.108,3.371v0.446c-2.155,2.109-3.496,5.046-3.496,8.299
			c0,3.589,1.625,6.792,4.176,8.924c-2.539,2.131-4.193,5.284-4.193,8.858c0,3.726,1.787,7.007,4.517,9.127
			c-1.056,0.826-1.969,1.795-2.692,2.927c-2.13-2.5-5.261-4.116-8.804-4.116c-6.42,0-11.621,5.2-11.621,11.616
			c0,3.289,1.399,6.212,3.596,8.323c-1.059,1.217-1.873,2.649-2.354,4.232c-0.018,0.043-0.041,0.084-0.059,0.127
			c0.006-0.004,0.021-0.009,0.029-0.014c-0.305,1.04-0.476,2.137-0.476,3.276c0,6.407,5.204,11.618,11.626,11.618
			c2.234,0,4.313-0.643,6.085-1.736c0.597,0.428,1.15,0.908,1.656,1.438c-1.479,1.951-2.367,4.375-2.367,7.014
			c0,3.102,1.227,5.916,3.214,8.002c-0.53,0.699-1.13,1.342-1.802,1.904c-1.911-1.377-4.25-2.199-6.786-2.199
			c-3.785,0-7.136,1.814-9.258,4.611c-0.09,0.107-0.192,0.201-0.278,0.311c-2.129-2.719-5.41-4.504-9.131-4.504
			c-0.101,0-0.185,0.027-0.286,0.027c-0.094,0-0.179-0.027-0.28-0.027C5.2,166.26,0,171.459,0,177.885
			c0,6.408,5.2,11.615,11.621,11.615c0.101,0,0.187-0.027,0.28-0.027c0.101,0,0.186,0.027,0.286,0.027
			c3.721,0,7.002-1.785,9.131-4.516c0.808,1.037,1.764,1.939,2.867,2.654c-3.114,2.09-5.167,5.637-5.167,9.668
			c0,6.408,5.21,11.617,11.625,11.617c6.417,0,11.623-5.209,11.623-11.617c0-4.107-2.145-7.699-5.357-9.773
			c0.62-0.412,1.18-0.9,1.698-1.432c0.344-0.309,0.669-0.637,0.974-0.984c2.122,2.809,5.48,4.635,9.273,4.635
			c3.744,0,7.064-1.779,9.19-4.529c0.741,0.91,1.591,1.723,2.574,2.369c-3.167,2.072-5.263,5.646-5.263,9.715
			c0,6.408,5.205,11.617,11.622,11.617c3.697,0,6.955-1.77,9.083-4.459c0.447,0.57,0.936,1.084,1.479,1.561
			c-2.386,2.127-3.916,5.189-3.916,8.639c0,3.699,1.758,6.959,4.458,9.092c-2.757,2.127-4.563,5.418-4.563,9.172
			c0,6.418,5.206,11.617,11.623,11.617c3.863,0,7.257-1.9,9.372-4.801c2.13,2.625,5.347,4.344,8.994,4.344
			c6.408,0,11.618-5.211,11.618-11.617c0-6.416-5.21-11.627-11.618-11.627c-3.86,0-7.257,1.902-9.374,4.801
			c-0.547-0.674-1.154-1.273-1.83-1.816c2.751-2.117,4.56-5.416,4.56-9.164c0-3.498-1.579-6.586-4.018-8.725
			c0.528-0.469,1.007-0.988,1.441-1.541c2.133,2.49,5.266,4.117,8.807,4.117c3.884,0,7.317-1.922,9.428-4.855
			c0.516,0.623,1.101,1.184,1.735,1.686c-2.515,2.133-4.114,5.311-4.114,8.863c0,6.408,5.201,11.619,11.631,11.619
			c3.509,0,6.617-1.588,8.747-4.053c2.101,2.996,5.57,4.963,9.512,4.963c3.699,0,6.958-1.754,9.087-4.453
			c0.552,0.65,1.178,1.234,1.858,1.75c-2.827,2.119-4.676,5.465-4.676,9.271c0,1.205,0.183,2.365,0.522,3.457
			c1.405,4.844,5.864,8.381,11.155,8.381c4.058,0,7.627-2.082,9.706-5.236c0.742,0.756,1.589,1.406,2.513,1.938
			c-2.928,2.109-4.842,5.539-4.842,9.424c0,6.426,5.205,11.625,11.622,11.625c6.416,0,11.622-5.199,11.622-11.625
			c0-4.268-2.309-7.988-5.738-10.008c0.984-0.703,1.863-1.545,2.59-2.51c2.121,2.816,5.482,4.643,9.278,4.643
			c2.81,0,5.387-0.996,7.396-2.656c2.631-2.131,4.315-5.385,4.315-9.041c0-3.424-1.519-6.459-3.882-8.58
			c0.642-0.623,1.21-1.318,1.696-2.074c0.853,1.008,1.872,1.863,3.009,2.539c1.799,1.143,3.927,1.812,6.215,1.812
			c3.663,0,6.926-1.697,9.056-4.348c0.558,0.656,1.165,1.262,1.855,1.779c-1.46,1.1-2.649,2.531-3.464,4.178
			c-0.869,1.629-1.365,3.488-1.365,5.465c0,6.408,5.204,11.619,11.626,11.619c6.417,0,11.621-5.211,11.621-11.619
			c0-2.668-0.906-5.117-2.415-7.078c0.615-0.861,1.339-1.637,2.162-2.301c2.002,1.631,4.556,2.613,7.34,2.613
			c2.764,0,5.299-0.971,7.294-2.582c0.733,0.598,1.384,1.289,1.953,2.047c-1.613,1.994-2.582,4.531-2.582,7.301
			c0,6.408,5.204,11.619,11.626,11.619c5.215,0,9.629-3.441,11.1-8.17c0.59-1.391,0.915-2.92,0.915-4.525
			c0-4.152-2.212-7.758-5.496-9.807c0.901-0.613,1.71-1.35,2.406-2.184c2.13,2.549,5.284,4.203,8.866,4.203
			c6.428,0,11.627-5.207,11.627-11.625c0-3.592-1.674-6.77-4.24-8.898c0.572-0.479,1.084-1.012,1.557-1.584
			c2.104,2.973,5.562,4.922,9.484,4.922c3.258,0,6.195-1.352,8.305-3.514c0.449,0.586,0.951,1.127,1.502,1.617
			c-1.953,2.072-3.172,4.842-3.172,7.914c0,6.408,5.201,11.617,11.629,11.617c6.426,0,11.621-5.209,11.621-11.617
			c0-3.443-1.5-6.52-3.869-8.648c0.609-0.65,1.145-1.369,1.592-2.146c2.113,2.895,5.531,4.777,9.393,4.777
			c3.021,0,5.766-1.164,7.834-3.057c2.066,1.893,4.811,3.057,7.834,3.057c6.418,0,11.623-5.209,11.623-11.615
			c0-2.137-0.586-4.131-1.592-5.852c0.318-0.027,0.625-0.053,0.941-0.08c2.074,1.922,4.842,3.105,7.896,3.105
			c3.793,0,7.146-1.82,9.264-4.623c0.348-0.033,0.703-0.068,1.039-0.1c-1.738,2.031-2.795,4.666-2.795,7.549
			c0,6.406,5.201,11.615,11.621,11.615c3.107,0,5.918-1.229,8.002-3.215c2.117,2.854,5.502,4.715,9.332,4.715
			c0.037,0,0.072-0.004,0.109-0.006c0.309,0.025,0.613,0.057,0.928,0.057c3.727,0,7.006-1.787,9.127-4.516
			c0.701,0.898,1.537,1.682,2.463,2.346c-2.99,2.102-4.943,5.57-4.943,9.504c0,6.416,5.189,11.627,11.615,11.627
			c3.49,0,6.578-1.57,8.709-3.994c2.119,2.795,5.447,4.631,9.23,4.631c6.428,0,11.617-5.209,11.617-11.617
			c0-3.832-1.873-7.207-4.732-9.326c1.213-0.83,2.252-1.889,3.074-3.105c2.127,2.365,5.199,3.861,8.627,3.861
			c3.574,0,6.721-1.643,8.852-4.172c2.127,2.432,5.229,4.012,8.717,4.012c6.426,0,11.617-5.209,11.617-11.637
			c0-3.166-1.303-5.99-3.367-8.082c2.338-2.125,3.814-5.18,3.814-8.588c0-3.785-1.811-7.133-4.605-9.256
			c0.939-0.713,1.768-1.561,2.451-2.521c2.119,2.814,5.48,4.643,9.277,4.643c6.428,0,11.627-5.199,11.627-11.615
			c0-3.479-1.531-6.588-3.945-8.717c-0.068-0.582-0.137-1.164-0.209-1.771c0.348-0.35,0.668-0.723,0.971-1.113
			c2.131,2.498,5.299,4.088,8.846,4.088c6.416,0,11.615-5.201,11.615-11.615c0-0.288-0.023-0.571-0.043-0.855
			c0.014,0.006,0.039,0.01,0.049,0.016c-0.014-0.02-0.035-0.057-0.053-0.081c-0.256-3.252-1.84-6.132-4.221-8.083
			c-0.105-0.14-0.203-0.254-0.279-0.305c2.604-2.13,4.307-5.324,4.307-8.956c0-3.469-1.549-6.549-3.955-8.678
			C532.748,112.001,534.761,108.484,534.761,104.5z M104.362,154.741c-1.137,9.734-8.113,17.926-19.308,17.926
			c-11.192,0-18.17-8.191-19.305-17.926c-0.812-6.812-0.812-15.896,0-22.717c1.134-9.729,8.113-17.924,19.305-17.924
			c11.194,0,18.17,8.195,19.308,17.924C105.171,138.844,105.171,147.928,104.362,154.741z M144.186,149.059l8.679,20.285
			c0.566,1.211,0.08,2.434-1.542,2.434h-8.354c-1.298,0-1.946-0.652-2.354-1.625l-8.275-20.035c-0.161-0.408-0.565-1.059-1.46-1.059
			h-2.108c-0.487,0-0.81,0.328-0.81,0.814v20.279c0,0.895-0.729,1.625-1.624,1.625h-8.111c-0.891,0-1.624-0.73-1.624-1.625v-53.54
			c0-0.889,0.733-1.618,1.624-1.618h17.846c9.329,0,17.035,7.702,17.035,17.029c0,6.248-2.677,10.471-8.436,14.359
			C143.535,147.198,143.618,147.848,144.186,149.059z M185.353,224.922c-2.115-2.889-5.521-4.771-9.375-4.771
			c-4.059,0-7.628,2.084-9.707,5.236c-0.445-0.453-0.931-0.863-1.444-1.238c2.888-2.115,4.772-5.521,4.772-9.379
			c0-3.705-1.738-6.996-4.439-9.121c0.469-0.369,0.907-0.775,1.313-1.213c2.1,2.996,5.568,4.959,9.504,4.959
			c3.678,0,6.952-1.713,9.082-4.381c0.481,0.449,0.996,0.861,1.547,1.225c-2.301,2.123-3.751,5.154-3.751,8.531
			c0,3.424,1.487,6.49,3.838,8.617C186.203,223.858,185.756,224.374,185.353,224.922z M202.342,132.674
			c0,0.816-0.73,1.625-1.625,1.625h-8.109c-0.891,0-1.625-0.73-1.625-1.625v-0.079c0-3.328-2.837-7.057-7.948-7.057
			c-4.947,0-7.462,2.92-7.867,6.486c-0.812,6.82-0.812,15.904,0,22.717c0.404,3.566,2.919,6.486,7.867,6.486
			c4.868,0,8.192-2.67,8.192-6.32v-3.492c0-0.488-0.323-0.811-0.81-0.811h-5.518c-0.892,0-1.622-0.73-1.622-1.625v-7.701
			c0-0.895,0.73-1.625,1.622-1.625h15.818c0.895,0,1.625,0.73,1.625,1.625v13.629c0,9.727-8.193,17.76-19.308,17.76
			c-11.191,0-18.17-8.191-19.305-17.926c-0.812-6.812-0.812-15.896,0-22.717c1.135-9.729,8.114-17.924,19.305-17.924
			c11.195,0,19.308,7.708,19.308,18.496V132.674z M242.783,187.477v-0.229c0.048,0.027,0.092,0.076,0.144,0.115
			C242.875,187.393,242.831,187.44,242.783,187.477z M250.114,171.778h-8.518c-0.729,0-1.296-0.488-1.54-1.223l-2.516-8.354
			c-0.161-0.646-0.486-1.217-1.217-1.217h-12.329c-0.73,0-1.056,0.486-1.217,1.217l-2.272,8.354
			c-0.161,0.734-0.81,1.223-1.542,1.223h-8.515c-1.299,0-1.786-0.895-1.622-1.625l14.52-53.941c0.161-0.73,0.809-1.217,1.542-1.217
			h10.866c0.732,0,1.381,0.486,1.542,1.217l14.441,53.941C251.9,170.883,251.413,171.778,250.114,171.778z M296.505,170.153
			c0,0.895-0.73,1.625-1.623,1.625h-9.568c-1.378,0-1.949-0.73-2.189-1.381l-11.033-28.475c-0.161-0.486-0.73-0.322-0.73,0.164
			v28.066c0,0.895-0.73,1.625-1.622,1.625h-8.109c-0.894,0-1.625-0.73-1.625-1.625v-53.54c0-0.889,0.731-1.618,1.625-1.618h9.651
			c1.218,0,1.783,0.729,2.027,1.46l11.115,30.821c0.16,0.486,0.729,0.322,0.729-0.162v-30.501c0-0.889,0.729-1.618,1.623-1.618
			h8.107c0.893,0,1.623,0.729,1.623,1.618V170.153z M321.08,170.153c0,0.895-0.729,1.625-1.619,1.625h-8.115
			c-0.889,0-1.623-0.73-1.623-1.625v-53.54c0-0.889,0.734-1.618,1.623-1.618h8.115c0.891,0,1.619,0.729,1.619,1.618V170.153z
			 M371.943,132.674c0,0.816-0.73,1.625-1.623,1.625h-8.111c-0.893,0-1.625-0.73-1.625-1.625v-0.079c0-3.328-2.84-7.057-7.951-7.057
			c-4.945,0-7.459,2.92-7.867,6.486c-0.809,6.82-0.809,15.904,0,22.717c0.408,3.566,2.922,6.486,7.867,6.486
			c4.789,0,7.951-3.486,7.951-6.973v-0.084c0-0.889,0.732-1.705,1.625-1.705h8.111c0.893,0,1.623,0.736,1.623,1.627v0.078
			c0,10.871-8.115,18.496-19.311,18.496s-18.168-8.191-19.305-17.926c-0.809-6.812-0.809-15.896,0-22.717
			c1.137-9.729,8.109-17.924,19.305-17.924s19.311,7.708,19.311,18.496V132.674z M394.486,170.153c0,0.895-0.73,1.625-1.625,1.625
			h-8.109c-0.895,0-1.625-0.73-1.625-1.625v-53.54c0-0.889,0.73-1.618,1.625-1.618h8.109c0.895,0,1.625,0.729,1.625,1.618V170.153z
			 M440.718,124.723c0,0.895-0.729,1.625-1.623,1.625h-10.137c-0.488,0-0.816,0.322-0.816,0.809v42.997
			c0,0.895-0.729,1.625-1.617,1.625h-8.117c-0.887,0-1.617-0.73-1.617-1.625v-42.997c0-0.487-0.324-0.809-0.816-0.809h-10.137
			c-0.893,0-1.623-0.729-1.623-1.625v-8.11c0-0.889,0.73-1.618,1.623-1.618h33.258c0.895,0,1.623,0.729,1.623,1.618V124.723z
			 M440.705,96.273c2.385-2.128,3.896-5.218,3.896-8.67c0-3.628-1.664-6.866-4.271-8.997c0.531-0.434,1.02-0.918,1.467-1.439
			c2.121,2.291,5.148,3.729,8.516,3.729c3.189,0,6.078-1.286,8.178-3.368c0.512,0.548,1.074,1.045,1.684,1.486
			c-2.338,2.125-3.816,5.18-3.816,8.589c0,3.453,1.512,6.542,3.898,8.67c-0.621,0.553-1.18,1.169-1.67,1.842
			c-2.107-2.137-5.035-3.464-8.273-3.464c-3.141,0-5.99,1.248-8.082,3.273C441.775,97.325,441.265,96.773,440.705,96.273z
			 M489.466,117.263l-14.359,36.177v16.713c0,0.895-0.73,1.625-1.619,1.625h-8.115c-0.889,0-1.619-0.73-1.619-1.625V153.44
			l-14.357-36.177c-0.488-1.217,0.242-2.269,1.295-2.269h8.926c0.73,0,1.217,0.322,1.539,1.217l7.787,22.468
			c0.164,0.487,0.811,0.487,0.975,0l7.787-22.468c0.322-0.895,0.809-1.217,1.539-1.217h8.926
			C489.222,114.995,489.951,116.046,489.466,117.263z"/>
		<path fill="#FFFFFF" d="M85.055,125.538c-4.946,0-7.462,2.92-7.867,6.486c-0.812,6.82-0.812,15.904,0,22.717
			c0.405,3.566,2.921,6.486,7.867,6.486c4.95,0,7.465-2.92,7.869-6.486c0.812-6.812,0.812-15.896,0-22.717
			C92.52,128.458,90.004,125.538,85.055,125.538z"/>
	</g>
</g>
</svg>
