<?xml version="1.0"?>
<svg xmlns="http://www.w3.org/2000/svg" xmlns:xlink="http://www.w3.org/1999/xlink" version="1.1" id="Layer_1" x="0px" y="0px" viewBox="0 0 512 512" style="enable-background:new 0 0 512 512;" xml:space="preserve" width="512px" height="512px" class=""><g><g>
	<g>
		<path d="M297.352,190.925c-4.621-4.104-9.241-6.161-13.862-6.161h-37.736v58.53h39.662c4.621,0,8.917-2.118,12.9-6.354    c3.977-4.236,5.968-11.871,5.968-22.912C304.283,202.735,301.972,195.034,297.352,190.925z" data-original="#000000" class="active-path" data-old_color="#ef3f6f" fill="#ef3f6f"/>
	</g>
</g><g>
	<g>
		<path d="M437.02,74.98C388.667,26.629,324.38,0,256,0S123.333,26.629,74.98,74.98C26.629,123.333,0,187.62,0,256    s26.629,132.667,74.98,181.02C123.333,485.371,187.62,512,256,512s132.667-26.629,181.02-74.98    C485.371,388.667,512,324.38,512,256S485.371,123.333,437.02,74.98z M373.979,249.262c-4.368,11.425-10.462,21.563-18.29,30.419    c-7.834,8.856-17.328,15.92-28.495,21.179c-11.167,5.265-23.429,7.894-36.773,7.894h-44.667v83.943h-75.087V119.303h117.829    c13.345,0,25.667,2.762,36.966,8.279c11.293,5.523,20.986,12.707,29.073,21.563c8.086,8.856,14.44,19,19.061,30.42    c4.621,11.425,6.931,22.911,6.931,34.463C380.525,226.098,378.341,237.842,373.979,249.262z" data-original="#000000" class="active-path" data-old_color="#ef3f6f" fill="#ef3f6f"/>
	</g>
</g></g> </svg>
